<svg width="13" height="13" viewBox="0 0 13 13" fill="none" xmlns="http://www.w3.org/2000/svg">
<path d="M6.49998 6.90625C8.63523 6.90625 10.8263 8.29454 10.9682 11.0836C10.9736 11.1911 10.9362 11.2964 10.8641 11.3763C10.792 11.4562 10.6911 11.5043 10.5836 11.5099C9.45694 11.5673 4.23906 11.6025 2.4169 11.5099C2.3093 11.5044 2.20828 11.4564 2.13605 11.3765C2.06383 11.2965 2.02632 11.1912 2.03177 11.0836C2.17369 8.29508 4.36473 6.90625 6.49998 6.90625ZM6.49998 2.03125C5.96126 2.03125 5.4446 2.24526 5.06367 2.62619C4.68274 3.00712 4.46873 3.52378 4.46873 4.0625C4.46873 4.60122 4.68274 5.11788 5.06367 5.49881C5.4446 5.87974 5.96126 6.09375 6.49998 6.09375C7.0387 6.09375 7.55536 5.87974 7.93629 5.49881C8.31722 5.11788 8.53123 4.60122 8.53123 4.0625C8.53123 3.52378 8.31722 3.00712 7.93629 2.62619C7.55536 2.24526 7.0387 2.03125 6.49998 2.03125Z" fill="#DADADA"/>
</svg>
