<svg width="19" height="19" viewBox="0 0 19 19" fill="none" xmlns="http://www.w3.org/2000/svg">
<g clip-path="url(#clip0_0_706)">
<path d="M8.60493 13.827C11.0519 14.3026 13.4211 12.7045 13.8967 10.2576C14.3724 7.81065 12.7743 5.44144 10.3274 4.9658C7.88043 4.49017 5.51121 6.08822 5.03557 8.53516C4.55994 10.9821 6.15799 13.3513 8.60493 13.827Z" fill="url(#paint0_radial_0_706)"/>
<path d="M8.60493 13.827C11.0519 14.3026 13.4211 12.7045 13.8967 10.2576C14.3724 7.81065 12.7743 5.44144 10.3274 4.9658C7.88043 4.49017 5.51121 6.08822 5.03557 8.53516C4.55994 10.9821 6.15799 13.3513 8.60493 13.827Z" fill="url(#paint1_radial_0_706)"/>
<path fill-rule="evenodd" clip-rule="evenodd" d="M5.11658 8.18926C5.7247 8.08997 6.7921 7.76874 7.85884 6.99761C9.22066 6.01338 9.70841 5.30697 9.9154 4.90508C8.85678 4.79938 7.79485 5.07091 6.91688 5.67176C6.03892 6.27261 5.40134 7.1642 5.11658 8.18926Z" fill="url(#paint2_radial_0_706)"/>
<path fill-rule="evenodd" clip-rule="evenodd" d="M13.9804 9.41559C13.3043 10.2107 12.4376 11.0665 11.2984 11.9377C10.3831 12.6374 9.12453 13.1899 7.84399 13.6093C6.86582 13.2329 6.04928 12.5275 5.53468 11.6145C6.66833 11.2119 7.96416 10.5724 9.4332 9.56061C11.2906 8.28049 12.3926 7.10772 12.8523 6.41215C13.5831 7.24147 13.9844 8.3101 13.9799 9.4155" fill="url(#paint3_radial_0_706)"/>
<path fill-rule="evenodd" clip-rule="evenodd" d="M13.9804 9.41559C13.3043 10.2107 12.4376 11.0665 11.2984 11.9377C10.3831 12.6374 9.12453 13.1899 7.84399 13.6093C6.86582 13.2329 6.04928 12.5275 5.53468 11.6145C6.66833 11.2119 7.96416 10.5724 9.4332 9.56061C11.2906 8.28049 12.3926 7.10772 12.8523 6.41215C13.5831 7.24147 13.9844 8.3101 13.9799 9.4155" fill="url(#paint4_radial_0_706)"/>
<path fill-rule="evenodd" clip-rule="evenodd" d="M13.9804 9.41559C13.3043 10.2107 12.4376 11.0665 11.2984 11.9377C10.3831 12.6374 9.12453 13.1899 7.84399 13.6093C6.86582 13.2329 6.04928 12.5275 5.53468 11.6145C6.66833 11.2119 7.96416 10.5724 9.4332 9.56061C11.2906 8.28049 12.3926 7.10772 12.8523 6.41215C13.5831 7.24147 13.9844 8.3101 13.9799 9.4155" fill="url(#paint5_radial_0_706)"/>
<path fill-rule="evenodd" clip-rule="evenodd" d="M13.9804 9.41559C13.3043 10.2107 12.4376 11.0665 11.2984 11.9377C10.3831 12.6374 9.12453 13.1899 7.84399 13.6093C6.86582 13.2329 6.04928 12.5275 5.53468 11.6145C6.66833 11.2119 7.96416 10.5724 9.4332 9.56061C11.2906 8.28049 12.3926 7.10772 12.8523 6.41215C13.5831 7.24147 13.9844 8.3101 13.9799 9.4155" fill="url(#paint6_radial_0_706)"/>
<path fill-rule="evenodd" clip-rule="evenodd" d="M16.0425 5.03099C15.8704 4.72911 15.5888 4.58472 15.3335 4.52746C15.0914 4.47327 14.8372 4.48651 14.6089 4.52108C14.1497 4.59074 13.6117 4.77751 13.0835 4.99982C12.666 5.17786 12.2551 5.3712 11.8518 5.57945C12.2545 5.82813 12.6154 6.13877 12.9213 6.49993C13.1477 6.39114 13.3717 6.28951 13.5883 6.19764C14.0869 5.98794 14.5062 5.85142 14.8037 5.80637C14.8157 5.80428 14.8274 5.80265 14.8388 5.80148C14.8147 5.85231 14.7809 5.91603 14.7311 5.99396C14.525 6.32064 14.1604 6.72906 13.6674 7.18996C12.6899 8.10475 11.3323 9.11426 10.1225 9.9401C8.95059 10.7412 7.38664 11.6648 6.05152 12.2915C5.37906 12.6065 4.79516 12.8327 4.35956 12.9381C4.26692 12.9605 4.18725 12.9764 4.12056 12.9858C4.21435 12.8309 4.37389 12.6312 4.60632 12.384C4.85846 12.1167 5.16021 11.83 5.48745 11.5248C5.26406 11.1018 5.10956 10.6458 5.02975 10.1742L4.75784 10.4279L4.71364 10.4693C4.34922 10.8085 3.97457 11.1584 3.66003 11.4925C3.35379 11.8181 3.05635 12.1769 2.88612 12.5391C2.71144 12.9136 2.61049 13.4487 2.99514 13.9121C3.23854 14.206 3.58413 14.2833 3.83808 14.2975C4.10195 14.3132 4.38814 14.269 4.66558 14.2017C5.22673 14.0663 5.90306 13.7969 6.60368 13.468C8.01275 12.8067 9.63721 11.847 10.856 11.0143C12.0853 10.1744 13.5059 9.12114 14.5555 8.13938C15.0759 7.65274 15.5365 7.15446 15.8311 6.68708C16.0925 6.27234 16.3823 5.6278 16.0425 5.03099Z" fill="url(#paint7_linear_0_706)"/>
<path fill-rule="evenodd" clip-rule="evenodd" d="M16.0425 5.03099C15.8704 4.72911 15.5888 4.58472 15.3335 4.52746C15.0914 4.47327 14.8372 4.48651 14.6089 4.52108C14.1497 4.59074 13.6117 4.77751 13.0835 4.99982C12.666 5.17786 12.2551 5.3712 11.8518 5.57945C12.2545 5.82813 12.6154 6.13877 12.9213 6.49993C13.1477 6.39114 13.3717 6.28951 13.5883 6.19764C14.0869 5.98794 14.5062 5.85142 14.8037 5.80637C14.8157 5.80428 14.8274 5.80265 14.8388 5.80148C14.8147 5.85231 14.7809 5.91603 14.7311 5.99396C14.525 6.32064 14.1604 6.72906 13.6674 7.18996C12.6899 8.10475 11.3323 9.11426 10.1225 9.9401C8.95059 10.7412 7.38664 11.6648 6.05152 12.2915C5.37906 12.6065 4.79516 12.8327 4.35956 12.9381C4.26692 12.9605 4.18725 12.9764 4.12056 12.9858C4.21435 12.8309 4.37389 12.6312 4.60632 12.384C4.85846 12.1167 5.16021 11.83 5.48745 11.5248C5.26406 11.1018 5.10956 10.6458 5.02975 10.1742L4.75784 10.4279L4.71364 10.4693C4.34922 10.8085 3.97457 11.1584 3.66003 11.4925C3.35379 11.8181 3.05635 12.1769 2.88612 12.5391C2.71144 12.9136 2.61049 13.4487 2.99514 13.9121C3.23854 14.206 3.58413 14.2833 3.83808 14.2975C4.10195 14.3132 4.38814 14.269 4.66558 14.2017C5.22673 14.0663 5.90306 13.7969 6.60368 13.468C8.01275 12.8067 9.63721 11.847 10.856 11.0143C12.0853 10.1744 13.5059 9.12114 14.5555 8.13938C15.0759 7.65274 15.5365 7.15446 15.8311 6.68708C16.0925 6.27234 16.3823 5.6278 16.0425 5.03099Z" fill="url(#paint8_radial_0_706)"/>
<path fill-rule="evenodd" clip-rule="evenodd" d="M16.0425 5.03099C15.8704 4.72911 15.5888 4.58472 15.3335 4.52746C15.0914 4.47327 14.8372 4.48651 14.6089 4.52108C14.1497 4.59074 13.6117 4.77751 13.0835 4.99982C12.666 5.17786 12.2551 5.3712 11.8518 5.57945C12.2545 5.82813 12.6154 6.13877 12.9213 6.49993C13.1477 6.39114 13.3717 6.28951 13.5883 6.19764C14.0869 5.98794 14.5062 5.85142 14.8037 5.80637C14.8157 5.80428 14.8274 5.80265 14.8388 5.80148C14.8147 5.85231 14.7809 5.91603 14.7311 5.99396C14.525 6.32064 14.1604 6.72906 13.6674 7.18996C12.6899 8.10475 11.3323 9.11426 10.1225 9.9401C8.95059 10.7412 7.38664 11.6648 6.05152 12.2915C5.37906 12.6065 4.79516 12.8327 4.35956 12.9381C4.26692 12.9605 4.18725 12.9764 4.12056 12.9858C4.21435 12.8309 4.37389 12.6312 4.60632 12.384C4.85846 12.1167 5.16021 11.83 5.48745 11.5248C5.26406 11.1018 5.10956 10.6458 5.02975 10.1742L4.75784 10.4279L4.71364 10.4693C4.34922 10.8085 3.97457 11.1584 3.66003 11.4925C3.35379 11.8181 3.05635 12.1769 2.88612 12.5391C2.71144 12.9136 2.61049 13.4487 2.99514 13.9121C3.23854 14.206 3.58413 14.2833 3.83808 14.2975C4.10195 14.3132 4.38814 14.269 4.66558 14.2017C5.22673 14.0663 5.90306 13.7969 6.60368 13.468C8.01275 12.8067 9.63721 11.847 10.856 11.0143C12.0853 10.1744 13.5059 9.12114 14.5555 8.13938C15.0759 7.65274 15.5365 7.15446 15.8311 6.68708C16.0925 6.27234 16.3823 5.6278 16.0425 5.03099Z" fill="url(#paint9_radial_0_706)"/>
<path fill-rule="evenodd" clip-rule="evenodd" d="M16.0425 5.03099C15.8704 4.72911 15.5888 4.58472 15.3335 4.52746C15.0914 4.47327 14.8372 4.48651 14.6089 4.52108C14.1497 4.59074 13.6117 4.77751 13.0835 4.99982C12.666 5.17786 12.2551 5.3712 11.8518 5.57945C12.2545 5.82813 12.6154 6.13877 12.9213 6.49993C13.1477 6.39114 13.3717 6.28951 13.5883 6.19764C14.0869 5.98794 14.5062 5.85142 14.8037 5.80637C14.8157 5.80428 14.8274 5.80265 14.8388 5.80148C14.8147 5.85231 14.7809 5.91603 14.7311 5.99396C14.525 6.32064 14.1604 6.72906 13.6674 7.18996C12.6899 8.10475 11.3323 9.11426 10.1225 9.9401C8.95059 10.7412 7.38664 11.6648 6.05152 12.2915C5.37906 12.6065 4.79516 12.8327 4.35956 12.9381C4.26692 12.9605 4.18725 12.9764 4.12056 12.9858C4.21435 12.8309 4.37389 12.6312 4.60632 12.384C4.85846 12.1167 5.16021 11.83 5.48745 11.5248C5.26406 11.1018 5.10956 10.6458 5.02975 10.1742L4.75784 10.4279L4.71364 10.4693C4.34922 10.8085 3.97457 11.1584 3.66003 11.4925C3.35379 11.8181 3.05635 12.1769 2.88612 12.5391C2.71144 12.9136 2.61049 13.4487 2.99514 13.9121C3.23854 14.206 3.58413 14.2833 3.83808 14.2975C4.10195 14.3132 4.38814 14.269 4.66558 14.2017C5.22673 14.0663 5.90306 13.7969 6.60368 13.468C8.01275 12.8067 9.63721 11.847 10.856 11.0143C12.0853 10.1744 13.5059 9.12114 14.5555 8.13938C15.0759 7.65274 15.5365 7.15446 15.8311 6.68708C16.0925 6.27234 16.3823 5.6278 16.0425 5.03099Z" fill="url(#paint10_radial_0_706)"/>
<path fill-rule="evenodd" clip-rule="evenodd" d="M16.0425 5.03099C15.8704 4.72911 15.5888 4.58472 15.3335 4.52746C15.0914 4.47327 14.8372 4.48651 14.6089 4.52108C14.1497 4.59074 13.6117 4.77751 13.0835 4.99982C12.666 5.17786 12.2551 5.3712 11.8518 5.57945C12.2545 5.82813 12.6154 6.13877 12.9213 6.49993C13.1477 6.39114 13.3717 6.28951 13.5883 6.19764C14.0869 5.98794 14.5062 5.85142 14.8037 5.80637C14.8157 5.80428 14.8274 5.80265 14.8388 5.80148C14.8147 5.85231 14.7809 5.91603 14.7311 5.99396C14.525 6.32064 14.1604 6.72906 13.6674 7.18996C12.6899 8.10475 11.3323 9.11426 10.1225 9.9401C8.95059 10.7412 7.38664 11.6648 6.05152 12.2915C5.37906 12.6065 4.79516 12.8327 4.35956 12.9381C4.26692 12.9605 4.18725 12.9764 4.12056 12.9858C4.21435 12.8309 4.37389 12.6312 4.60632 12.384C4.85846 12.1167 5.16021 11.83 5.48745 11.5248C5.26406 11.1018 5.10956 10.6458 5.02975 10.1742L4.75784 10.4279L4.71364 10.4693C4.34922 10.8085 3.97457 11.1584 3.66003 11.4925C3.35379 11.8181 3.05635 12.1769 2.88612 12.5391C2.71144 12.9136 2.61049 13.4487 2.99514 13.9121C3.23854 14.206 3.58413 14.2833 3.83808 14.2975C4.10195 14.3132 4.38814 14.269 4.66558 14.2017C5.22673 14.0663 5.90306 13.7969 6.60368 13.468C8.01275 12.8067 9.63721 11.847 10.856 11.0143C12.0853 10.1744 13.5059 9.12114 14.5555 8.13938C15.0759 7.65274 15.5365 7.15446 15.8311 6.68708C16.0925 6.27234 16.3823 5.6278 16.0425 5.03099Z" fill="url(#paint11_radial_0_706)"/>
<path fill-rule="evenodd" clip-rule="evenodd" d="M16.0425 5.03099C15.8704 4.72911 15.5888 4.58472 15.3335 4.52746C15.0914 4.47327 14.8372 4.48651 14.6089 4.52108C14.1497 4.59074 13.6117 4.77751 13.0835 4.99982C12.666 5.17786 12.2551 5.3712 11.8518 5.57945C12.2545 5.82813 12.6154 6.13877 12.9213 6.49993C13.1477 6.39114 13.3717 6.28951 13.5883 6.19764C14.0869 5.98794 14.5062 5.85142 14.8037 5.80637C14.8157 5.80428 14.8274 5.80265 14.8388 5.80148C14.8147 5.85231 14.7809 5.91603 14.7311 5.99396C14.525 6.32064 14.1604 6.72906 13.6674 7.18996C12.6899 8.10475 11.3323 9.11426 10.1225 9.9401C8.95059 10.7412 7.38664 11.6648 6.05152 12.2915C5.37906 12.6065 4.79516 12.8327 4.35956 12.9381C4.26692 12.9605 4.18725 12.9764 4.12056 12.9858C4.21435 12.8309 4.37389 12.6312 4.60632 12.384C4.85846 12.1167 5.16021 11.83 5.48745 11.5248C5.26406 11.1018 5.10956 10.6458 5.02975 10.1742L4.75784 10.4279L4.71364 10.4693C4.34922 10.8085 3.97457 11.1584 3.66003 11.4925C3.35379 11.8181 3.05635 12.1769 2.88612 12.5391C2.71144 12.9136 2.61049 13.4487 2.99514 13.9121C3.23854 14.206 3.58413 14.2833 3.83808 14.2975C4.10195 14.3132 4.38814 14.269 4.66558 14.2017C5.22673 14.0663 5.90306 13.7969 6.60368 13.468C8.01275 12.8067 9.63721 11.847 10.856 11.0143C12.0853 10.1744 13.5059 9.12114 14.5555 8.13938C15.0759 7.65274 15.5365 7.15446 15.8311 6.68708C16.0925 6.27234 16.3823 5.6278 16.0425 5.03099Z" fill="url(#paint12_radial_0_706)"/>
<path fill-rule="evenodd" clip-rule="evenodd" d="M16.0425 5.03099C15.8704 4.72911 15.5888 4.58472 15.3335 4.52746C15.0914 4.47327 14.8372 4.48651 14.6089 4.52108C14.1497 4.59074 13.6117 4.77751 13.0835 4.99982C12.666 5.17786 12.2551 5.3712 11.8518 5.57945C12.2545 5.82813 12.6154 6.13877 12.9213 6.49993C13.1477 6.39114 13.3717 6.28951 13.5883 6.19764C14.0869 5.98794 14.5062 5.85142 14.8037 5.80637C14.8157 5.80428 14.8274 5.80265 14.8388 5.80148C14.8147 5.85231 14.7809 5.91603 14.7311 5.99396C14.525 6.32064 14.1604 6.72906 13.6674 7.18996C12.6899 8.10475 11.3323 9.11426 10.1225 9.9401C8.95059 10.7412 7.38664 11.6648 6.05152 12.2915C5.37906 12.6065 4.79516 12.8327 4.35956 12.9381C4.26692 12.9605 4.18725 12.9764 4.12056 12.9858C4.21435 12.8309 4.37389 12.6312 4.60632 12.384C4.85846 12.1167 5.16021 11.83 5.48745 11.5248C5.26406 11.1018 5.10956 10.6458 5.02975 10.1742L4.75784 10.4279L4.71364 10.4693C4.34922 10.8085 3.97457 11.1584 3.66003 11.4925C3.35379 11.8181 3.05635 12.1769 2.88612 12.5391C2.71144 12.9136 2.61049 13.4487 2.99514 13.9121C3.23854 14.206 3.58413 14.2833 3.83808 14.2975C4.10195 14.3132 4.38814 14.269 4.66558 14.2017C5.22673 14.0663 5.90306 13.7969 6.60368 13.468C8.01275 12.8067 9.63721 11.847 10.856 11.0143C12.0853 10.1744 13.5059 9.12114 14.5555 8.13938C15.0759 7.65274 15.5365 7.15446 15.8311 6.68708C16.0925 6.27234 16.3823 5.6278 16.0425 5.03099Z" fill="url(#paint13_radial_0_706)"/>
<g filter="url(#filter0_f_0_706)">
<path d="M15.1105 4.886C15.0773 4.88766 15.0462 4.90242 15.0239 4.92704C15.0017 4.95165 14.9901 4.9841 14.9918 5.01725C14.9934 5.0504 15.0082 5.08153 15.0328 5.1038C15.0574 5.12607 15.0899 5.13764 15.123 5.13598L15.1105 4.886ZM10.3131 10.9852C11.2704 10.3838 13.7183 8.61792 15.1855 7.07045L15.0045 6.89875C13.5576 8.42522 11.1281 10.1778 10.18 10.7734L10.3131 10.9852ZM15.1855 7.07045C15.7981 6.42446 15.9843 5.88304 15.8994 5.48401C15.8128 5.07753 15.4556 4.86903 15.1105 4.886L15.123 5.13598C15.3638 5.12369 15.5978 5.26648 15.6549 5.53632C15.7141 5.81371 15.5966 6.27375 15.0045 6.89875L15.1855 7.07045Z" fill="url(#paint14_linear_0_706)"/>
</g>
</g>
<defs>
<filter id="filter0_f_0_706" x="9.68005" y="4.38504" width="6.73871" height="7.10013" filterUnits="userSpaceOnUse" color-interpolation-filters="sRGB">
<feFlood flood-opacity="0" result="BackgroundImageFix"/>
<feBlend mode="normal" in="SourceGraphic" in2="BackgroundImageFix" result="shape"/>
<feGaussianBlur stdDeviation="0.25" result="effect1_foregroundBlur_0_706"/>
</filter>
<radialGradient id="paint0_radial_0_706" cx="0" cy="0" r="1" gradientUnits="userSpaceOnUse" gradientTransform="translate(11.5431 6.91472) rotate(127.565) scale(7.86565 7.4873)">
<stop stop-color="#FFB455"/>
<stop offset="1" stop-color="#EB6A38"/>
</radialGradient>
<radialGradient id="paint1_radial_0_706" cx="0" cy="0" r="1" gradientUnits="userSpaceOnUse" gradientTransform="translate(11.6612 8.30452) rotate(140.632) scale(6.7052)">
<stop offset="0.594" stop-color="#CC5934" stop-opacity="0"/>
<stop offset="1" stop-color="#CC5934"/>
</radialGradient>
<radialGradient id="paint2_radial_0_706" cx="0" cy="0" r="1" gradientUnits="userSpaceOnUse" gradientTransform="translate(6.65273 6.07757) rotate(23.3625) scale(2.3354 7.9111)">
<stop stop-color="#D9957B"/>
<stop offset="1" stop-color="#FFBC94"/>
</radialGradient>
<radialGradient id="paint3_radial_0_706" cx="0" cy="0" r="1" gradientUnits="userSpaceOnUse" gradientTransform="translate(13.0739 9.99934) rotate(151.114) scale(5.78035 5.444)">
<stop stop-color="#FFEAC1"/>
<stop offset="1" stop-color="#D4726B"/>
</radialGradient>
<radialGradient id="paint4_radial_0_706" cx="0" cy="0" r="1" gradientUnits="userSpaceOnUse" gradientTransform="translate(14.3642 8.65903) rotate(139.911) scale(3.33337 1.95198)">
<stop stop-color="#FFE7C2"/>
<stop offset="1" stop-color="#FFE7C2" stop-opacity="0"/>
</radialGradient>
<radialGradient id="paint5_radial_0_706" cx="0" cy="0" r="1" gradientUnits="userSpaceOnUse" gradientTransform="translate(8.32204 13.7022) rotate(-78.4071) scale(1.51003 2.71899)">
<stop stop-color="#C46867"/>
<stop offset="1" stop-color="#C46867" stop-opacity="0"/>
</radialGradient>
<radialGradient id="paint6_radial_0_706" cx="0" cy="0" r="1" gradientUnits="userSpaceOnUse" gradientTransform="translate(9.45685 9.14549) rotate(59.1223) scale(0.695011 5.83405)">
<stop stop-color="#FFBD91"/>
<stop offset="1" stop-color="#FFBD91" stop-opacity="0"/>
</radialGradient>
<linearGradient id="paint7_linear_0_706" x1="9.27897" y1="8.23431" x2="14.6829" y2="11.3858" gradientUnits="userSpaceOnUse">
<stop stop-color="#E6AF22"/>
<stop offset="1" stop-color="#FFFB4B"/>
</linearGradient>
<radialGradient id="paint8_radial_0_706" cx="0" cy="0" r="1" gradientUnits="userSpaceOnUse" gradientTransform="translate(12.6713 6.58581) rotate(-37.4268) scale(3.69682 1.04281)">
<stop offset="0.101" stop-color="#F39D2B"/>
<stop offset="1" stop-color="#F39D2B" stop-opacity="0"/>
</radialGradient>
<radialGradient id="paint9_radial_0_706" cx="0" cy="0" r="1" gradientUnits="userSpaceOnUse" gradientTransform="translate(11.7297 5.86183) rotate(-22.3985) scale(3.40625 1.76552)">
<stop stop-color="#F19C20"/>
<stop offset="1" stop-color="#F19C20" stop-opacity="0"/>
</radialGradient>
<radialGradient id="paint10_radial_0_706" cx="0" cy="0" r="1" gradientUnits="userSpaceOnUse" gradientTransform="translate(3.99952 14.5938) rotate(-83.086) scale(2.19307 8.5585)">
<stop stop-color="#D08E28"/>
<stop offset="1" stop-color="#D08E28" stop-opacity="0"/>
</radialGradient>
<radialGradient id="paint11_radial_0_706" cx="0" cy="0" r="1" gradientUnits="userSpaceOnUse" gradientTransform="translate(4.53316 12.708) rotate(160.893) scale(1.07466 0.266539)">
<stop stop-color="#E9C441"/>
<stop offset="1" stop-color="#E9AF41" stop-opacity="0"/>
</radialGradient>
<radialGradient id="paint12_radial_0_706" cx="0" cy="0" r="1" gradientUnits="userSpaceOnUse" gradientTransform="translate(5.57085 11.0902) rotate(135.301) scale(1.73239 0.44677)">
<stop stop-color="#F1D338"/>
<stop offset="1" stop-color="#F1B338" stop-opacity="0"/>
</radialGradient>
<radialGradient id="paint13_radial_0_706" cx="0" cy="0" r="1" gradientUnits="userSpaceOnUse" gradientTransform="translate(13.4036 6.72118) rotate(137.992) scale(2.93438 0.82041)">
<stop offset="0.154" stop-color="#ECA53B"/>
<stop offset="1" stop-color="#ECA53B" stop-opacity="0"/>
</radialGradient>
<linearGradient id="paint14_linear_0_706" x1="13.593" y1="8.85895" x2="9.72364" y2="11.2424" gradientUnits="userSpaceOnUse">
<stop stop-color="#FFEF33"/>
<stop offset="1" stop-color="#FFEF33" stop-opacity="0"/>
</linearGradient>
<clipPath id="clip0_0_706">
<rect width="16" height="16" fill="white" transform="translate(3.05273) rotate(11)"/>
</clipPath>
</defs>
</svg>
