<svg width="12" height="12" viewBox="0 0 12 12" fill="none" xmlns="http://www.w3.org/2000/svg">
<g clip-path="url(#clip0_0_765)">
<path d="M6.37969 0.677813L7.64156 3.55594C7.68905 3.66424 7.76473 3.75781 7.8607 3.8269C7.95667 3.89599 8.06942 3.93807 8.18719 3.94875L11.2613 4.22438C11.6091 4.275 11.7478 4.70156 11.4956 4.94719L9.18 6.8925C8.9925 7.05 8.90719 7.2975 8.95875 7.53656L9.63188 10.6875C9.69094 11.0334 9.32813 11.2978 9.01688 11.1337L6.33375 9.5625C6.23256 9.50308 6.11735 9.47175 6 9.47175C5.88266 9.47175 5.76744 9.50308 5.66625 9.5625L2.98313 11.1328C2.67281 11.2959 2.30906 11.0325 2.36813 10.6866L3.04125 7.53562C3.09188 7.29656 3.0075 7.04906 2.82 6.89156L0.503439 4.94812C0.252189 4.70344 0.390939 4.27594 0.737814 4.22531L3.81188 3.94969C3.92965 3.93901 4.0424 3.89693 4.13837 3.82784C4.23434 3.75875 4.31001 3.66517 4.3575 3.55687L5.61938 0.67875C5.77594 0.36375 6.22406 0.36375 6.37969 0.677813Z" fill="#FDD835"/>
<path d="M6.28782 3.72844L6.07407 1.60781C6.06563 1.48969 6.04126 1.28719 6.23063 1.28719C6.38063 1.28719 6.46219 1.59938 6.46219 1.59938L7.10344 3.30188C7.34532 3.94969 7.24594 4.17188 7.01251 4.30313C6.74438 4.45313 6.34876 4.33594 6.28782 3.72844Z" fill="#FFFF8D"/>
<path d="M8.9325 6.70406L10.7719 5.26875C10.8628 5.19281 11.0269 5.07188 10.8956 4.93406C10.7916 4.82531 10.5103 4.98188 10.5103 4.98188L8.90062 5.61094C8.42062 5.77688 8.10187 6.0225 8.07375 6.33188C8.03718 6.74438 8.4075 7.06219 8.9325 6.70406Z" fill="#F4B400"/>
</g>
<defs>
<clipPath id="clip0_0_765">
<rect width="12" height="12" fill="white"/>
</clipPath>
</defs>
</svg>
