<svg width="16" height="16" viewBox="0 0 16 16" fill="none" xmlns="http://www.w3.org/2000/svg">
<path d="M8 12.125C9.7475 12.125 11.225 11.03 11.8325 9.5H4.1675C4.7675 11.03 6.2525 12.125 8 12.125ZM5.375 7.25C5.67337 7.25 5.95952 7.13147 6.1705 6.9205C6.38147 6.70952 6.5 6.42337 6.5 6.125C6.5 5.82663 6.38147 5.54048 6.1705 5.3295C5.95952 5.11853 5.67337 5 5.375 5C5.07663 5 4.79048 5.11853 4.5795 5.3295C4.36853 5.54048 4.25 5.82663 4.25 6.125C4.25 6.42337 4.36853 6.70952 4.5795 6.9205C4.79048 7.13147 5.07663 7.25 5.375 7.25ZM10.625 7.25C10.9234 7.25 11.2095 7.13147 11.4205 6.9205C11.6315 6.70952 11.75 6.42337 11.75 6.125C11.75 5.82663 11.6315 5.54048 11.4205 5.3295C11.2095 5.11853 10.9234 5 10.625 5C10.3266 5 10.0405 5.11853 9.8295 5.3295C9.61853 5.54048 9.5 5.82663 9.5 6.125C9.5 6.42337 9.61853 6.70952 9.8295 6.9205C10.0405 7.13147 10.3266 7.25 10.625 7.25ZM8 14C6.4087 14 4.88258 13.3679 3.75736 12.2426C2.63214 11.1174 2 9.5913 2 8C2 6.4087 2.63214 4.88258 3.75736 3.75736C4.88258 2.63214 6.4087 2 8 2C9.5913 2 11.1174 2.63214 12.2426 3.75736C13.3679 4.88258 14 6.4087 14 8C14 9.5913 13.3679 11.1174 12.2426 12.2426C11.1174 13.3679 9.5913 14 8 14ZM8 0.5C3.8525 0.5 0.5 3.875 0.5 8C0.5 9.98912 1.29018 11.8968 2.6967 13.3033C3.39314 13.9997 4.21993 14.5522 5.12987 14.9291C6.03982 15.306 7.01509 15.5 8 15.5C9.98912 15.5 11.8968 14.7098 13.3033 13.3033C14.7098 11.8968 15.5 9.98912 15.5 8C15.5 7.01509 15.306 6.03982 14.9291 5.12987C14.5522 4.21993 13.9997 3.39314 13.3033 2.6967C12.6069 2.00026 11.7801 1.44781 10.8701 1.0709C9.96018 0.693993 8.98491 0.5 8 0.5Z" fill="white"/>
</svg>
