<svg width="24" height="24" viewBox="0 0 24 24" fill="none" xmlns="http://www.w3.org/2000/svg">
<path d="M3.075 5.9494C3.075 5.9494 1.86562 6.04503 1.70437 6.3169C1.54125 6.58878 1.53187 7.0069 1.53187 7.46628C1.53187 7.92753 1.51312 8.98503 1.51312 8.98503L1.80187 9.60565C1.80187 9.60565 1.85625 17.5163 1.85625 17.7619C1.85625 18.0057 1.85625 18.3038 2.20875 18.4932C2.56125 18.6825 11.52 23.01 11.7994 23.1263C12.2212 23.3007 12.4219 23.235 12.4219 23.235L22.3762 6.5869C22.3762 6.5869 22.3444 6.13128 21.93 6.02253C21.6919 5.96253 3.075 5.9494 3.075 5.9494Z" fill="#F5B03E"/>
<path d="M12.315 11.4225C12.1631 11.8406 12.2325 16.1644 12.2587 19.3087C12.285 22.4512 12.1781 23.1019 12.2587 23.2106C12.3394 23.3194 12.5587 23.2144 13.1794 22.9387C14.3325 22.4287 19.8712 19.6875 20.2781 19.4437C20.685 19.2 21.6787 18.6956 21.8419 18.4237C22.005 18.1519 22.0931 15.6225 22.1475 13.5919C22.2019 11.5594 22.2562 9.93373 22.2562 9.93373L22.5 9.20248C22.5 9.20248 22.4475 7.22623 22.4381 7.00873C22.4212 6.64873 22.3819 6.4631 22.29 6.5081C22.1587 6.56998 21.0637 7.4681 18.165 8.8781C16.3444 9.76123 12.42 11.1337 12.315 11.4225Z" fill="#E07F14"/>
<path d="M12.3412 2.10188C11.5294 2.06438 9.30749 3.34875 7.16624 4.05188C5.02499 4.755 1.79249 6.16875 1.76436 6.25125C1.73811 6.33188 3.06561 6.92625 3.91311 7.33313C4.91999 7.815 8.76374 9.63563 9.46686 9.93375C10.1719 10.2319 11.8519 10.9294 12.1219 10.9088C12.5006 10.8825 16.0781 9.4725 17.8931 8.60625C19.7081 7.74 21.9769 6.3975 22.0069 6.07125C22.02 5.925 18.6694 4.67438 16.9987 3.91875C13.7737 2.45813 12.9356 2.13 12.3412 2.10188Z" fill="#FDD717"/>
<path d="M1.52251 9.33189C1.55063 9.68439 1.74376 9.81001 2.23501 10.0238C2.72626 10.2375 12.0131 15.0619 12.2269 15.0619C12.4406 15.0619 12.5044 14.2969 12.27 14.3175C12.1425 14.3288 9.09188 12.8794 6.24188 11.4319C3.82313 10.2056 1.50751 8.98126 1.50751 8.98126L1.52251 9.33189Z" fill="#E37D14"/>
<path d="M22.5019 9.18561C22.5019 9.18561 12.585 14.2294 12.4875 14.2781C12.39 14.3269 12.2344 14.31 12.2344 14.31L12.2269 15.0619C12.2269 15.0619 12.3187 15.0825 12.4219 15.0506C12.4819 15.0319 22.215 9.99373 22.2581 9.97873C22.3012 9.96373 22.4887 9.85123 22.5281 9.61311C22.5619 9.42186 22.5019 9.18561 22.5019 9.18561Z" fill="#BA5E0D"/>
<path d="M5.41125 18.2662L7.35187 21.1537L8.20125 21.4444C8.20125 21.4444 8.27062 18.2944 8.29874 15.96C8.33812 12.5494 8.32312 9.43875 8.37187 9.2625C8.4525 8.96437 12.2269 7.74 12.2269 7.74C12.2269 7.74 16.4906 9.07687 16.6256 9.375C16.6856 9.50625 16.6387 11.715 16.6256 14.2894C16.6087 17.5406 16.6144 21.2944 16.6144 21.2944C16.6144 21.2944 17.055 21.2925 17.1075 21.1294C17.1619 20.9662 17.3794 19.7081 17.3794 19.7081L19.0331 8.685L19.8731 7.60125L18.7069 5.38125L13.9219 3.02625L12.2775 3.39562L10.4981 3.12375L4.85437 7.17937L5.5125 8.51437L7.12687 9.33749L5.41125 18.2662Z" fill="#AF0F1B"/>
<path d="M17.115 9.26062C17.0119 9.4875 17.0719 21.1781 17.0719 21.1781C17.0719 21.1781 17.5875 20.8931 18.2512 20.5744C18.9112 20.2575 19.3856 20.0606 19.4269 19.8956C19.4681 19.7306 19.5412 8.16937 19.5412 8.16937L17.115 9.26062Z" fill="#DC0D28"/>
<path d="M7.75312 9.01875C7.815 9.08625 7.71375 21.2175 7.58812 21.2456C7.48875 21.27 5.22937 20.2612 5.22937 20.1581C5.22937 20.055 5.41125 8.46187 5.41125 8.46187C5.41125 8.46187 7.56937 8.8125 7.75312 9.01875ZM12.2306 2.67188C11.6062 2.67188 10.9162 2.85 10.7156 3.37312C10.515 3.89625 10.47 4.67438 10.47 5.25563C10.47 5.8125 10.38 7.2375 12.0956 7.215C13.8112 7.1925 13.8619 6.55687 13.8881 5.15438C13.9106 3.98438 13.755 3.41625 13.5994 3.1725C13.4606 2.95313 12.9994 2.67188 12.2306 2.67188Z" fill="#FF2A23"/>
<path d="M11.2387 5.56687C11.6287 5.58937 11.7956 4.73249 12.0956 4.26374C12.3956 3.79687 12.7087 3.48374 12.5962 3.23999C12.5044 3.03749 11.6887 2.97187 11.2481 3.58499C10.9387 4.01812 10.8844 5.54624 11.2387 5.56687Z" fill="#FCC9D2"/>
<path d="M13.7494 3.07877C13.7494 3.07877 14.3025 3.64127 14.4469 4.74377C14.5913 5.84627 14.4244 6.70315 14.4244 6.70315C14.4244 6.70315 17.1731 6.62064 18.1219 6.80252C19.0575 6.9844 19.3838 7.39689 19.3838 7.69689C19.3838 7.99689 18.7688 8.23877 18.1444 8.19377C17.52 8.14877 17.0981 8.11502 17.0194 8.27252C16.9406 8.43002 17.0531 8.67377 17.9213 8.7394C18.7894 8.8069 19.7925 8.68315 20.1038 7.60314C20.415 6.52314 20.4263 4.6519 20.3156 3.30377C20.205 1.95565 19.9613 1.18502 19.3575 0.89252C18.7219 0.586895 17.13 0.53627 15.6263 1.3819C14.1225 2.22752 13.7494 3.07877 13.7494 3.07877Z" fill="#FF2A23"/>
<path d="M16.8637 1.79623C16.6687 1.54498 16.0406 1.55248 15.705 1.94061C15.3487 2.35311 15.27 3.92248 15.7275 4.01248C16.245 4.11373 16.1512 3.26623 16.53 2.74311C16.9012 2.23123 17.0531 2.04186 16.8637 1.79623Z" fill="#FCC9D2"/>
<path d="M10.5712 3.13312C10.5712 3.13312 8.46559 0.678746 6.05997 0.716246C4.61247 0.738746 4.24497 1.57312 4.16622 1.91812C4.08747 2.26312 3.48747 5.69437 4.28809 7.5525C5.08872 9.41062 6.74997 8.92875 7.01059 8.86875C7.34434 8.79 8.05497 8.54625 7.98747 8.28937C7.91997 8.0325 5.55934 8.95687 5.53684 7.89937C5.51434 6.84187 7.20747 6.72937 7.98747 6.70687C8.76747 6.68437 10.1043 6.8625 10.1043 6.8625C10.1043 6.8625 9.86997 5.58187 10.0256 4.66875C10.1812 3.75562 10.5712 3.13312 10.5712 3.13312Z" fill="#FF2A23"/>
<path d="M5.41501 1.60688C5.11501 1.91813 4.99126 3.7125 5.18063 4.60313C5.37001 5.49375 5.53688 5.8725 5.92688 5.79563C6.25313 5.73 6.45001 3.9825 6.60563 3.3675C6.77251 2.71125 7.18501 2.01375 7.01813 1.70813C6.76313 1.23938 5.72813 1.2825 5.41501 1.60688Z" fill="#FCC9D2"/>
</svg>
