<svg width="28" height="28" viewBox="0 0 28 28" fill="none" xmlns="http://www.w3.org/2000/svg">
<g clip-path="url(#clip0_0_695)">
<path d="M12.912 17.583L16.8458 16.9209C16.8458 16.9209 16.7122 17.9914 16.5238 18.436C16.2155 19.1574 16.0636 19.5251 16.0008 20.2199C15.9022 21.2898 16.064 22.071 16.064 22.071C16.064 22.071 16.2682 21.9572 16.5457 21.9861C16.8835 22.021 17.0955 22.2042 17.0899 22.3404C17.0836 22.462 16.712 22.446 16.5077 22.7377C16.3464 22.9681 16.3321 23.3283 16.3411 23.5583C16.3505 23.7901 16.3703 24.0812 15.9603 24.2147C15.5487 24.3503 14.9258 24.5064 14.7519 24.3184C14.58 24.1319 14.006 20.4457 14.006 20.4457L12.912 17.583Z" fill="#307D31"/>
<path d="M12.7235 16.7768C12.6718 16.9249 10.9491 17.5585 10.9491 17.5585C10.9491 17.5585 10.4103 17.9815 10.3689 19.0598C10.3458 19.6439 10.5737 20.7785 10.538 21.1961C10.4878 21.7942 9.91387 22.2383 9.96819 22.3676C10.0225 22.497 10.5726 22.3908 10.9656 22.1288C11.8544 21.5366 11.8693 20.6334 12.0495 19.8271C12.2241 19.0514 12.7287 18.5715 12.7287 18.5715C12.7287 18.5715 12.6864 19.12 12.846 19.6885C12.9823 20.1778 13.2505 20.7846 13.1543 21.4371C13.062 22.0593 12.8495 22.4618 12.9686 22.4964C13.0583 22.5214 14.0221 22.2495 14.2624 21.3214C14.5282 20.2962 14.4215 19.5126 14.582 18.9099C14.7591 18.2431 15.2574 17.8847 15.2574 17.8847C15.2574 17.8847 15.6837 18.043 16.2729 18.621C16.9294 19.265 17.479 19.8074 17.8301 20.1383C18.6528 20.916 19.6245 21.0356 19.6267 20.8795C19.6291 20.6308 19.0722 20.3306 18.8903 19.8772C18.4433 18.7609 18.6779 18.1469 18.2461 17.3058C17.6241 16.0906 16.6873 16.2317 16.3531 16.2277C16.2757 16.2302 12.7235 16.7768 12.7235 16.7768Z" fill="#5C9823"/>
<path d="M9.90712 10.5249C9.67204 10.3792 6.27709 8.71715 6.27709 8.71715L5.99704 7.39162C5.99704 7.39162 5.01465 6.12879 5.68004 4.94229C6.2581 3.91202 7.28611 3.99387 7.28611 3.99387C7.28611 3.99387 7.6692 3.28705 8.52061 3.09245C9.60882 2.84313 10.3072 3.67241 10.3072 3.67241L15.4018 3.6135L18.5007 4.93118C18.5007 4.93118 18.8888 4.72563 19.2727 4.90623C19.6726 5.09329 19.6483 5.63864 19.6503 5.88103C19.6521 6.11232 16.4957 9.6911 16.4957 9.6911L17.893 15.3668L16.8624 17.0254C16.8624 17.0254 16.7138 17.2332 16.3536 17.3449C16.1445 17.4095 15.8543 17.3718 15.8543 17.3718L14.6497 15.2161L9.90712 10.5249Z" fill="#96010C"/>
<path d="M15.1603 2.65362L14.5007 2.82182L14.101 3.29809L14.4016 4.02521C14.4016 4.02521 14.523 4.58749 14.1251 4.93744C13.7273 5.28739 12.9307 5.88739 12.9307 5.88739L12.503 6.99305C12.503 6.99305 12.0924 6.9339 11.4024 6.72017C10.7573 6.51891 9.87778 5.95504 9.87778 5.95504L8.5084 6.102C8.5084 6.102 8.2455 6.12427 8.06861 6.39264C7.81485 6.78204 8.05112 7.47045 8.77833 8.01115C9.47773 8.53081 10.8877 9.066 11.2087 9.2262C11.5298 9.38639 12.0104 9.57959 12.281 9.67456C12.5417 9.76571 12.8592 9.90614 12.9791 9.86091C13.0986 9.81389 13.2075 9.35925 13.716 8.84895C14.2245 8.33866 14.7316 7.89348 15.6022 7.40829C16.4728 6.9231 17.297 6.39604 17.538 6.17567C17.7789 5.9553 17.2018 4.84706 16.7411 4.18896C16.2804 3.53085 15.1707 2.57582 15.1603 2.65362Z" fill="#AF0C1B"/>
<path d="M12.4536 6.30318C12.2786 6.64534 12.3839 6.98996 12.3839 6.98996C12.3839 6.98996 12.9343 7.20051 13.455 7.28473C14.399 7.43697 16.3858 6.99771 17.2727 6.39476C18.1596 5.79181 18.5645 5.33499 18.632 4.85614C18.7107 4.29377 18.665 3.19375 17.4838 2.54781C16.1301 1.80628 14.4317 2.64125 14.4755 2.88925C14.5192 3.13725 15.2014 2.81314 15.3601 3.71349C15.5189 4.61384 14.8242 5.29779 14.0405 5.55085C13.2569 5.80392 12.7179 5.78408 12.4536 6.30318Z" fill="#DB132C"/>
<path d="M8.21362 6.24846C8.21362 6.24846 8.05796 5.9016 8.30854 5.55724C8.68642 5.03107 9.22749 4.69478 9.49658 4.27673C9.76567 3.85869 10.1182 3.09425 11.2495 2.73171C12.926 2.19336 14.15 2.64089 14.5375 3.38789C14.9249 4.13489 14.5019 4.48927 14.0225 4.58677C13.5431 4.68428 13.2354 4.50506 12.3799 4.8134C10.9304 5.33582 10.5527 6.23071 10.4312 6.32995C10.3076 6.42772 9.81808 6.2472 9.18394 6.19225C8.72665 6.15244 8.41543 6.23697 8.21362 6.24846Z" fill="#F71538"/>
<path d="M14.0445 10.544C14.0445 10.544 14.171 9.47473 15.055 8.65549C15.9407 7.83595 16.6657 7.69144 17.8345 6.89053C19.0034 6.08963 19.375 5.63312 19.5546 5.46433C19.739 5.29099 19.9058 5.13372 20.0935 5.34706C20.2142 5.48514 20.164 6.14624 19.8429 6.83658C19.515 7.54109 19.1445 7.96219 19.0079 9.09992C18.8261 10.6014 19.8866 11.7504 19.4025 14.1964C19.2456 14.9876 18.6911 15.7839 18.1416 16.3348C17.592 16.8857 16.7055 17.1439 16.7055 17.1439C16.7055 17.1439 16.9876 16.8625 17.0179 16.0048C17.0326 15.5834 17.0349 14.84 16.8007 14.0901C16.1317 11.9455 14.0445 10.544 14.0445 10.544Z" fill="#CD0E1F"/>
<path d="M7.18317 11.4388C7.28966 11.9166 7.37218 13.7087 7.91323 15.0642C8.33845 16.1307 9.8229 17.8868 12.0575 18.0858C14.1134 18.2699 16.1179 17.3531 16.1179 17.3531C16.1179 17.3531 16.6743 15.8745 15.9294 13.9935C15.1176 11.9428 12.7127 10.7362 10.0479 9.95716C6.84577 9.02086 6.00275 7.361 6.00275 7.361C6.00275 7.361 4.98943 7.27841 4.90051 8.19278C4.76427 9.59542 7.02249 10.7167 7.18317 11.4388Z" fill="#E2122D"/>
</g>
<defs>
<clipPath id="clip0_0_695">
<rect width="23.3578" height="23.3578" fill="white" transform="translate(0 4.05566) rotate(-10)"/>
</clipPath>
</defs>
</svg>
